<?xml version="1.0" encoding="utf-8"?>
<!-- Generator: Adobe Illustrator 21.0.1, SVG Export Plug-In . SVG Version: 6.00 Build 0)  -->
<svg version="1.1" id="Layer_1" xmlns="http://www.w3.org/2000/svg" xmlns:xlink="http://www.w3.org/1999/xlink" x="0px" y="0px"
	 viewBox="0 0 1920 1920" style="enable-background:new 0 0 1920 1920;" xml:space="preserve">
<style type="text/css">
	.st0{clip-path:url(#SVGID_2_);fill:#F6F6F6;}
	.st1{clip-path:url(#SVGID_2_);}
	.st2{fill:#FFFFFF;}
	.st3{fill:#DCDDDD;}
	.st4{opacity:0.98;clip-path:url(#SVGID_2_);fill:none;stroke:#FFFFFF;stroke-width:174.2595;stroke-miterlimit:10;}
	.st5{opacity:0.98;clip-path:url(#SVGID_2_);fill:none;stroke:#FFFFFF;stroke-width:112.3727;stroke-miterlimit:10;}
	.st6{clip-path:url(#SVGID_2_);fill:none;}
</style>
<g>
	<defs>
		<rect id="SVGID_1_" x="3" y="-1" width="1917" height="1921"/>
	</defs>
	<clipPath id="SVGID_2_">
		<use xlink:href="#SVGID_1_"  style="overflow:visible;"/>
	</clipPath>
	<polygon class="st0" points="1977.6,1979.9 -48.7,1979.9 -47.1,-55.5 1976.2,-60.3 	"/>
	<g class="st1">
		<ellipse class="st2" cx="982.8" cy="111.3" rx="8.8" ry="8.8"/>
		<ellipse class="st2" cx="1028.3" cy="111.3" rx="8.8" ry="8.8"/>
		<ellipse class="st2" cx="1073.7" cy="111.3" rx="8.8" ry="8.8"/>
		<ellipse class="st2" cx="1119.2" cy="111.3" rx="8.8" ry="8.8"/>
		<ellipse class="st2" cx="1164.6" cy="111.3" rx="8.8" ry="8.8"/>
		<ellipse class="st2" cx="1210.1" cy="111.3" rx="8.8" ry="8.8"/>
		<ellipse class="st2" cx="1255.5" cy="111.3" rx="8.8" ry="8.8"/>
		<ellipse class="st2" cx="1300.9" cy="111.3" rx="8.8" ry="8.8"/>
		<ellipse class="st2" cx="1346.4" cy="111.3" rx="8.8" ry="8.8"/>
		<ellipse class="st2" cx="982.8" cy="160.9" rx="8.8" ry="8.8"/>
		<ellipse class="st2" cx="1028.3" cy="160.9" rx="8.8" ry="8.8"/>
		<ellipse class="st2" cx="1073.7" cy="160.9" rx="8.8" ry="8.8"/>
		<ellipse class="st2" cx="1119.2" cy="160.9" rx="8.8" ry="8.8"/>
		<ellipse class="st2" cx="1164.6" cy="160.9" rx="8.8" ry="8.8"/>
		<ellipse class="st2" cx="1210.1" cy="160.9" rx="8.8" ry="8.8"/>
		<ellipse class="st2" cx="1255.5" cy="160.9" rx="8.8" ry="8.8"/>
		<ellipse class="st2" cx="1300.9" cy="160.9" rx="8.8" ry="8.8"/>
		<ellipse class="st2" cx="1346.4" cy="160.9" rx="8.8" ry="8.8"/>
		<ellipse class="st2" cx="982.8" cy="210.5" rx="8.8" ry="8.8"/>
		<ellipse class="st2" cx="1028.3" cy="210.5" rx="8.8" ry="8.8"/>
		<ellipse class="st2" cx="1073.7" cy="210.5" rx="8.8" ry="8.8"/>
		<ellipse class="st2" cx="1119.2" cy="210.5" rx="8.8" ry="8.8"/>
		<ellipse class="st2" cx="1164.6" cy="210.5" rx="8.8" ry="8.8"/>
		<ellipse class="st2" cx="1210.1" cy="210.5" rx="8.8" ry="8.8"/>
		<ellipse class="st2" cx="1255.5" cy="210.5" rx="8.8" ry="8.8"/>
		<ellipse class="st2" cx="1300.9" cy="210.5" rx="8.8" ry="8.8"/>
		<ellipse class="st2" cx="1346.4" cy="210.5" rx="8.8" ry="8.8"/>
	</g>
	<g class="st1">
		<ellipse class="st3" cx="123.9" cy="739.8" rx="8.8" ry="8.8"/>
		<ellipse class="st3" cx="169.3" cy="739.8" rx="8.8" ry="8.8"/>
		<ellipse class="st3" cx="214.8" cy="739.8" rx="8.8" ry="8.8"/>
		<ellipse class="st3" cx="260.2" cy="739.8" rx="8.8" ry="8.8"/>
		<ellipse class="st3" cx="305.6" cy="739.8" rx="8.8" ry="8.8"/>
		<ellipse class="st3" cx="351.1" cy="739.8" rx="8.8" ry="8.8"/>
		<ellipse class="st3" cx="396.5" cy="739.8" rx="8.8" ry="8.8"/>
		<ellipse class="st3" cx="442" cy="739.8" rx="8.8" ry="8.8"/>
		<ellipse class="st3" cx="487.4" cy="739.8" rx="8.8" ry="8.8"/>
		<ellipse class="st3" cx="123.9" cy="789.4" rx="8.8" ry="8.8"/>
		<ellipse class="st3" cx="169.3" cy="789.4" rx="8.8" ry="8.8"/>
		<ellipse class="st3" cx="214.8" cy="789.4" rx="8.8" ry="8.8"/>
		<ellipse class="st3" cx="260.2" cy="789.4" rx="8.8" ry="8.8"/>
		<ellipse class="st3" cx="305.6" cy="789.4" rx="8.8" ry="8.8"/>
		<ellipse class="st3" cx="351.1" cy="789.4" rx="8.8" ry="8.8"/>
		<ellipse class="st3" cx="396.5" cy="789.4" rx="8.8" ry="8.8"/>
		<ellipse class="st3" cx="442" cy="789.4" rx="8.8" ry="8.8"/>
		<ellipse class="st3" cx="487.4" cy="789.4" rx="8.8" ry="8.8"/>
		<ellipse class="st3" cx="123.9" cy="839" rx="8.8" ry="8.8"/>
		<ellipse class="st3" cx="169.3" cy="839" rx="8.8" ry="8.8"/>
		<ellipse class="st3" cx="214.8" cy="839" rx="8.8" ry="8.8"/>
		<ellipse class="st3" cx="260.2" cy="839" rx="8.8" ry="8.8"/>
		<ellipse class="st3" cx="305.6" cy="839" rx="8.8" ry="8.8"/>
		<ellipse class="st3" cx="351.1" cy="839" rx="8.8" ry="8.8"/>
		<ellipse class="st3" cx="396.5" cy="839" rx="8.8" ry="8.8"/>
		<ellipse class="st3" cx="442" cy="839" rx="8.8" ry="8.8"/>
		<ellipse class="st3" cx="487.4" cy="839" rx="8.8" ry="8.8"/>
	</g>
	<g class="st1">
		<ellipse class="st2" cx="1611.8" cy="683.5" rx="8.8" ry="8.8"/>
		<ellipse class="st2" cx="1657.2" cy="683.5" rx="8.8" ry="8.8"/>
		<ellipse class="st2" cx="1702.7" cy="683.5" rx="8.8" ry="8.8"/>
		<ellipse class="st2" cx="1748.1" cy="683.5" rx="8.8" ry="8.8"/>
		<ellipse class="st2" cx="1793.6" cy="683.5" rx="8.8" ry="8.8"/>
		<ellipse class="st2" cx="1839" cy="683.5" rx="8.8" ry="8.8"/>
		<ellipse class="st2" cx="1884.5" cy="683.5" rx="8.8" ry="8.8"/>
		<ellipse class="st2" cx="1611.8" cy="733.1" rx="8.8" ry="8.8"/>
		<ellipse class="st2" cx="1657.2" cy="733.1" rx="8.8" ry="8.8"/>
		<ellipse class="st2" cx="1702.7" cy="733.1" rx="8.8" ry="8.8"/>
		<ellipse class="st2" cx="1748.1" cy="733.1" rx="8.8" ry="8.8"/>
		<ellipse class="st2" cx="1793.6" cy="733.1" rx="8.8" ry="8.8"/>
		<ellipse class="st2" cx="1839" cy="733.1" rx="8.8" ry="8.8"/>
		<ellipse class="st2" cx="1884.5" cy="733.1" rx="8.8" ry="8.8"/>
		<ellipse class="st2" cx="1611.8" cy="782.7" rx="8.8" ry="8.8"/>
		<ellipse class="st2" cx="1657.2" cy="782.7" rx="8.8" ry="8.8"/>
		<ellipse class="st2" cx="1702.7" cy="782.7" rx="8.8" ry="8.8"/>
		<ellipse class="st2" cx="1748.1" cy="782.7" rx="8.8" ry="8.8"/>
		<ellipse class="st2" cx="1793.6" cy="782.7" rx="8.8" ry="8.8"/>
		<ellipse class="st2" cx="1839" cy="782.7" rx="8.8" ry="8.8"/>
		<ellipse class="st2" cx="1884.5" cy="782.7" rx="8.8" ry="8.8"/>
	</g>
	<path class="st4" d="M-92.6,241.9c0,198.9,160.9,360.1,359.3,360.1H626V241.9C626,43,465.1-118.2,266.7-118.2S-92.6,43-92.6,241.9z
		"/>
	<path class="st4" d="M1822.4,241.9c0,198.9,160.9,360.1,359.3,360.1H2541V241.9c0-198.9-160.9-360.1-359.3-360.1
		S1822.4,43,1822.4,241.9z"/>
	<path class="st4" d="M1824.4,2161.1c0,198.9,160.9,360.1,359.3,360.1H2543v-360.1c0-198.9-160.9-360.1-359.3-360.1
		S1824.4,1962.2,1824.4,2161.1z"/>
	<path class="st4" d="M-92.6,2161.3c0,198.9,160.9,360.1,359.3,360.1H626v-360.1c0-198.9-160.9-360.1-359.3-360.1
		S-92.6,1962.5-92.6,2161.3z"/>
	<path class="st0" d="M780,1299.9c0-146.1-118.2-264.5-263.9-264.5H252.1v264.5c0,146.1,118.2,264.5,263.9,264.5
		S780,1446,780,1299.9z"/>
	<g class="st1">
		<ellipse class="st3" cx="968" cy="1814.9" rx="8.8" ry="8.8"/>
		<ellipse class="st3" cx="922.5" cy="1814.9" rx="8.8" ry="8.8"/>
		<ellipse class="st3" cx="877.1" cy="1814.9" rx="8.8" ry="8.8"/>
		<ellipse class="st3" cx="831.6" cy="1814.9" rx="8.8" ry="8.8"/>
		<ellipse class="st3" cx="786.2" cy="1814.9" rx="8.8" ry="8.8"/>
		<ellipse class="st3" cx="740.8" cy="1814.9" rx="8.8" ry="8.8"/>
		<ellipse class="st3" cx="695.3" cy="1814.9" rx="8.8" ry="8.8"/>
		<ellipse class="st3" cx="649.9" cy="1814.9" rx="8.8" ry="8.8"/>
		<ellipse class="st3" cx="604.4" cy="1814.9" rx="8.8" ry="8.8"/>
		<ellipse class="st3" cx="968" cy="1765.3" rx="8.8" ry="8.8"/>
		<ellipse class="st3" cx="922.5" cy="1765.3" rx="8.8" ry="8.8"/>
		<ellipse class="st3" cx="877.1" cy="1765.3" rx="8.8" ry="8.8"/>
		<ellipse class="st3" cx="831.6" cy="1765.3" rx="8.8" ry="8.8"/>
		<ellipse class="st3" cx="786.2" cy="1765.3" rx="8.8" ry="8.8"/>
		<ellipse class="st3" cx="740.8" cy="1765.3" rx="8.8" ry="8.8"/>
		<ellipse class="st3" cx="695.3" cy="1765.3" rx="8.8" ry="8.8"/>
		<ellipse class="st3" cx="649.9" cy="1765.3" rx="8.8" ry="8.8"/>
		<ellipse class="st3" cx="604.4" cy="1765.3" rx="8.8" ry="8.8"/>
		<ellipse class="st3" cx="968" cy="1715.7" rx="8.8" ry="8.8"/>
		<ellipse class="st3" cx="922.5" cy="1715.7" rx="8.8" ry="8.8"/>
		<ellipse class="st3" cx="877.1" cy="1715.7" rx="8.8" ry="8.8"/>
		<ellipse class="st3" cx="831.6" cy="1715.7" rx="8.8" ry="8.8"/>
		<ellipse class="st3" cx="786.2" cy="1715.7" rx="8.8" ry="8.8"/>
		<ellipse class="st3" cx="740.8" cy="1715.7" rx="8.8" ry="8.8"/>
		<ellipse class="st3" cx="695.3" cy="1715.7" rx="8.8" ry="8.8"/>
		<ellipse class="st3" cx="649.9" cy="1715.7" rx="8.8" ry="8.8"/>
		<ellipse class="st3" cx="604.4" cy="1715.7" rx="8.8" ry="8.8"/>
	</g>
	<path class="st5" d="M1285.8,72.4c128,0,231.7-104,231.7-232.2V-392h-231.7c-128,0-231.7,104-231.7,232.2S1157.9,72.4,1285.8,72.4z
		"/>
	<path class="st5" d="M1285.8,1989.4c128,0,231.7-104,231.7-232.2V1525h-231.7c-128,0-231.7,104-231.7,232.2
		S1157.9,1989.4,1285.8,1989.4z"/>
	<path class="st0" d="M1371.7,418.6c-198.4,0-359.3,161.2-359.3,360.1v360.1h359.3c198.4,0,359.3-161.2,359.3-360.1
		S1570.2,418.6,1371.7,418.6z"/>
	<polygon class="st6" points="1974.5,1972.2 -45.4,1970.1 -45.4,-52 1972.5,-52 	"/>
</g>
</svg>
