<?xml version="1.0" encoding="utf-8"?>
<!-- Generator: Adobe Illustrator 21.0.1, SVG Export Plug-In . SVG Version: 6.00 Build 0)  -->
<svg version="1.1" id="Layer_1" xmlns="http://www.w3.org/2000/svg" xmlns:xlink="http://www.w3.org/1999/xlink" x="0px" y="0px"
	 viewBox="0 0 1920 1920" style="enable-background:new 0 0 1920 1920;" xml:space="preserve">
<style type="text/css">
	.st0{fill:#352F2D;}
	.st1{fill:#383838;}
	.st2{fill:#3B3B3B;}
	.st3{fill:#EFEFEF;}
	.st4{fill:#E0E0E0;}
	.st5{fill:#FFFFFF;}
	.st6{fill:#FAFAFA;}
	.st7{fill:#FFCE00;}
	.st8{fill:#EFC31D;}
	.st9{fill:#FFDB5D;}
</style>
<g>
	<polygon class="st5" points="1835.7,0 1567.1,0 1437.8,0 1154.3,0 1025,0 615.4,0 0,0 0,206.8 0,362.3 0,650.9 0,1836.6 0,1920 
		616.7,1920 1024.1,1920 1152.7,1920 1439.4,1920 1568,1920 1834.4,1920 1920,1920 1920,1838.2 1920,649.3 1920,354.5 1920,214.6 
		1920,0 	"/>
	<g>
		<circle class="st3" cx="989.4" cy="152.7" r="8.9"/>
		<circle class="st3" cx="1035.4" cy="152.7" r="8.9"/>
		<circle class="st3" cx="1081.4" cy="152.7" r="8.9"/>
		<circle class="st3" cx="1127.4" cy="152.7" r="8.9"/>
		<path class="st3" d="M1173.4,161.6c2,0,3.9-0.7,5.3-1.8c-4.8-2.1-9.5-4.3-14.2-6.7C1164.7,157.8,1168.6,161.6,1173.4,161.6z"/>
		<circle class="st3" cx="989.4" cy="202.8" r="8.9"/>
		<circle class="st3" cx="1035.4" cy="202.8" r="8.9"/>
		<circle class="st3" cx="1081.4" cy="202.8" r="8.9"/>
		<circle class="st3" cx="1127.4" cy="202.8" r="8.9"/>
		<circle class="st3" cx="1173.4" cy="202.8" r="8.9"/>
		<circle class="st3" cx="1219.4" cy="202.8" r="8.9"/>
		<circle class="st3" cx="1265.4" cy="202.8" r="8.9"/>
		<circle class="st3" cx="1311.3" cy="202.8" r="8.9"/>
		<circle class="st3" cx="1357.3" cy="202.8" r="8.9"/>
		<circle class="st3" cx="989.4" cy="252.9" r="8.9"/>
		<circle class="st3" cx="1035.4" cy="252.9" r="8.9"/>
		<circle class="st3" cx="1081.4" cy="252.9" r="8.9"/>
		<circle class="st3" cx="1127.4" cy="252.9" r="8.9"/>
		<circle class="st3" cx="1173.4" cy="252.9" r="8.9"/>
		<circle class="st3" cx="1219.4" cy="252.9" r="8.9"/>
		<circle class="st3" cx="1265.4" cy="252.9" r="8.9"/>
		<circle class="st3" cx="1311.3" cy="252.9" r="8.9"/>
		<circle class="st3" cx="1357.3" cy="252.9" r="8.9"/>
		<circle class="st6" cx="400.5" cy="863" r="8.9"/>
		<circle class="st6" cx="446.5" cy="863" r="8.9"/>
		<circle class="st6" cx="492.5" cy="863" r="8.9"/>
		<circle class="st6" cx="538.5" cy="863" r="8.9"/>
		<circle class="st6" cx="584.5" cy="863" r="8.9"/>
		<circle class="st6" cx="630.5" cy="863" r="8.9"/>
		<circle class="st6" cx="676.5" cy="863" r="8.9"/>
		<circle class="st6" cx="722.5" cy="863" r="8.9"/>
		<circle class="st6" cx="768.5" cy="863" r="8.9"/>
		<circle class="st6" cx="400.5" cy="913.1" r="8.9"/>
		<circle class="st6" cx="446.5" cy="913.1" r="8.9"/>
		<circle class="st6" cx="492.5" cy="913.1" r="8.9"/>
		<circle class="st6" cx="538.5" cy="913.1" r="8.9"/>
		<circle class="st6" cx="584.5" cy="913.1" r="8.9"/>
		<circle class="st6" cx="630.5" cy="913.1" r="8.9"/>
		<circle class="st6" cx="676.5" cy="913.1" r="8.9"/>
		<circle class="st6" cx="722.5" cy="913.1" r="8.9"/>
		<circle class="st6" cx="768.5" cy="913.1" r="8.9"/>
		<circle class="st6" cx="400.5" cy="963.2" r="8.9"/>
		<circle class="st6" cx="446.5" cy="963.2" r="8.9"/>
		<circle class="st6" cx="492.5" cy="963.2" r="8.9"/>
		<circle class="st6" cx="538.5" cy="963.2" r="8.9"/>
		<circle class="st6" cx="584.5" cy="963.2" r="8.9"/>
		<circle class="st6" cx="630.5" cy="963.2" r="8.9"/>
		<circle class="st6" cx="676.5" cy="963.2" r="8.9"/>
		<circle class="st6" cx="722.5" cy="963.2" r="8.9"/>
		<circle class="st6" cx="768.5" cy="963.2" r="8.9"/>
		<circle class="st6" cx="1764" cy="730.6" r="8.9"/>
		<circle class="st6" cx="1810" cy="730.6" r="8.9"/>
		<circle class="st6" cx="1856" cy="730.6" r="8.9"/>
		<circle class="st6" cx="1902" cy="730.6" r="8.9"/>
		<circle class="st6" cx="1764" cy="780.7" r="8.9"/>
		<circle class="st6" cx="1810" cy="780.7" r="8.9"/>
		<circle class="st6" cx="1856" cy="780.7" r="8.9"/>
		<circle class="st6" cx="1902" cy="780.7" r="8.9"/>
		<circle class="st6" cx="1764" cy="830.8" r="8.9"/>
		<circle class="st6" cx="1810" cy="830.8" r="8.9"/>
		<circle class="st6" cx="1856" cy="830.8" r="8.9"/>
		<circle class="st6" cx="1902" cy="830.8" r="8.9"/>
		<path class="st6" d="M1920,0h-84.3c-26.8,32.9-48.7,69.3-65.3,108.7c-23.6,55.8-35.5,114.9-35.5,175.9s12,120.1,35.5,175.9
			c22.8,53.8,55.3,102.1,96.8,143.6c16.5,16.5,34.2,31.6,52.8,45.3V354.5c-5.9-22.6-8.9-46-8.9-70c0-23.9,3.1-47.4,8.9-70V0z"/>
		<path class="st6" d="M1834.4,1920h85.6v-81.8c-18.6,13.6-36.3,28.7-52.8,45.3C1855.5,1895.1,1844.6,1907.3,1834.4,1920z"/>
		<path class="st3" d="M784,1353.2c0-147.5-119.6-267.1-267.1-267.1H249.7v267.1c0,147.5,119.6,267.1,267.1,267.1
			C664.4,1620.4,784,1500.8,784,1353.2z"/>
		<circle class="st3" cx="974.3" cy="1873.4" r="8.9"/>
		<circle class="st3" cx="928.3" cy="1873.4" r="8.9"/>
		<circle class="st3" cx="882.3" cy="1873.4" r="8.9"/>
		<circle class="st3" cx="836.3" cy="1873.4" r="8.9"/>
		<circle class="st3" cx="790.3" cy="1873.4" r="8.9"/>
		<circle class="st3" cx="744.3" cy="1873.4" r="8.9"/>
		<circle class="st3" cx="698.3" cy="1873.4" r="8.9"/>
		<circle class="st3" cx="652.3" cy="1873.4" r="8.9"/>
		<circle class="st3" cx="606.3" cy="1873.4" r="8.9"/>
		<circle class="st3" cx="974.3" cy="1823.3" r="8.9"/>
		<circle class="st3" cx="928.3" cy="1823.3" r="8.9"/>
		<circle class="st3" cx="882.3" cy="1823.3" r="8.9"/>
		<circle class="st3" cx="836.3" cy="1823.3" r="8.9"/>
		<circle class="st3" cx="790.3" cy="1823.3" r="8.9"/>
		<circle class="st3" cx="744.3" cy="1823.3" r="8.9"/>
		<circle class="st3" cx="698.3" cy="1823.3" r="8.9"/>
		<circle class="st3" cx="652.3" cy="1823.3" r="8.9"/>
		<circle class="st3" cx="606.3" cy="1823.3" r="8.9"/>
		<circle class="st3" cx="974.3" cy="1773.2" r="8.9"/>
		<circle class="st3" cx="928.3" cy="1773.2" r="8.9"/>
		<circle class="st3" cx="882.3" cy="1773.2" r="8.9"/>
		<circle class="st3" cx="836.3" cy="1773.2" r="8.9"/>
		<circle class="st3" cx="790.3" cy="1773.2" r="8.9"/>
		<circle class="st3" cx="744.3" cy="1773.2" r="8.9"/>
		<circle class="st3" cx="698.3" cy="1773.2" r="8.9"/>
		<circle class="st3" cx="652.3" cy="1773.2" r="8.9"/>
		<circle class="st3" cx="606.3" cy="1773.2" r="8.9"/>
		<path class="st6" d="M1164.5,153c0-0.1,0-0.2,0-0.3c0-4.9,4-8.9,8.9-8.9s8.9,4,8.9,8.9c0,2.9-1.4,5.4-3.5,7.1
			c36.5,16.1,76.3,24.5,117.4,24.5c77.8,0,151-30.3,206-85.3c28.7-28.7,50.6-62.3,65.1-99h-129.3c-32.5,42.9-83.9,70.7-141.7,70.7
			c-57.8,0-109.3-27.8-141.7-70.7H1025c14.5,36.6,36.4,70.3,65.1,99C1112.2,121.1,1137.3,139.3,1164.5,153z M1357.3,143.9
			c4.9,0,8.9,4,8.9,8.9c0,4.9-4,8.9-8.9,8.9s-8.9-4-8.9-8.9C1348.5,147.8,1352.5,143.9,1357.3,143.9z M1311.3,143.9
			c4.9,0,8.9,4,8.9,8.9c0,4.9-4,8.9-8.9,8.9s-8.9-4-8.9-8.9C1302.5,147.8,1306.5,143.9,1311.3,143.9z M1265.4,143.9
			c4.9,0,8.9,4,8.9,8.9c0,4.9-4,8.9-8.9,8.9c-4.9,0-8.9-4-8.9-8.9C1256.5,147.8,1260.5,143.9,1265.4,143.9z M1219.4,143.9
			c4.9,0,8.9,4,8.9,8.9c0,4.9-4,8.9-8.9,8.9s-8.9-4-8.9-8.9C1210.5,147.8,1214.5,143.9,1219.4,143.9z"/>
		<path class="st3" d="M1182.2,152.7c0-4.9-4-8.9-8.9-8.9s-8.9,4-8.9,8.9c0,0.1,0,0.2,0,0.3c4.7,2.4,9.4,4.6,14.2,6.7
			C1180.8,158.1,1182.2,155.6,1182.2,152.7z"/>
		<circle class="st3" cx="1219.4" cy="152.7" r="8.9"/>
		<circle class="st3" cx="1265.4" cy="152.7" r="8.9"/>
		<circle class="st3" cx="1311.3" cy="152.7" r="8.9"/>
		<circle class="st3" cx="1357.3" cy="152.7" r="8.9"/>
		<path class="st6" d="M1090.1,1609.1c-55,55-85.3,128.2-85.3,206c0,36.4,6.6,71.9,19.4,104.9h128.6
			c-21.6-29.4-34.4-65.7-34.4-104.9c0-98,79.7-177.7,177.7-177.7h177.7v177.7c0,39.2-12.8,75.5-34.4,104.9H1568
			c12.7-33,19.4-68.4,19.4-104.9v-291.3h-291.3C1218.2,1523.8,1145.1,1554.1,1090.1,1609.1z"/>
		<path class="st3" d="M1383,463c-200.9,0-363.7,162.8-363.7,363.7v363.7H1383c200.9,0,363.7-162.8,363.7-363.7S1583.8,463,1383,463
			z M1626,839.7c-4.9,0-8.9-4-8.9-8.9c0-4.9,4-8.9,8.9-8.9c4.9,0,8.9,4,8.9,8.9C1634.8,835.7,1630.9,839.7,1626,839.7z M1626,789.6
			c-4.9,0-8.9-4-8.9-8.9c0-4.9,4-8.9,8.9-8.9c4.9,0,8.9,4,8.9,8.9C1634.8,785.6,1630.9,789.6,1626,789.6z M1626,739.5
			c-4.9,0-8.9-4-8.9-8.9s4-8.9,8.9-8.9c4.9,0,8.9,4,8.9,8.9S1630.9,739.5,1626,739.5z M1718,721.8c4.9,0,8.9,4,8.9,8.9
			s-4,8.9-8.9,8.9s-8.9-4-8.9-8.9S1713.1,721.8,1718,721.8z M1718,771.9c4.9,0,8.9,4,8.9,8.9c0,4.9-4,8.9-8.9,8.9s-8.9-4-8.9-8.9
			C1709.1,775.8,1713.1,771.9,1718,771.9z M1718,821.9c4.9,0,8.9,4,8.9,8.9c0,4.9-4,8.9-8.9,8.9s-8.9-4-8.9-8.9
			C1709.1,825.9,1713.1,821.9,1718,821.9z M1672,721.8c4.9,0,8.9,4,8.9,8.9s-4,8.9-8.9,8.9s-8.9-4-8.9-8.9S1667.1,721.8,1672,721.8z
			 M1672,771.9c4.9,0,8.9,4,8.9,8.9c0,4.9-4,8.9-8.9,8.9s-8.9-4-8.9-8.9C1663.1,775.8,1667.1,771.9,1672,771.9z M1672,821.9
			c4.9,0,8.9,4,8.9,8.9c0,4.9-4,8.9-8.9,8.9s-8.9-4-8.9-8.9C1663.1,825.9,1667.1,821.9,1672,821.9z"/>
		<circle class="st3" cx="1626" cy="730.6" r="8.9"/>
		<circle class="st3" cx="1672" cy="730.6" r="8.9"/>
		<circle class="st3" cx="1718" cy="730.6" r="8.9"/>
		<circle class="st3" cx="1626" cy="780.7" r="8.9"/>
		<circle class="st3" cx="1672" cy="780.7" r="8.9"/>
		<circle class="st3" cx="1718" cy="780.7" r="8.9"/>
		<circle class="st3" cx="1626" cy="830.8" r="8.9"/>
		<circle class="st3" cx="1672" cy="830.8" r="8.9"/>
		<circle class="st3" cx="1718" cy="830.8" r="8.9"/>
		<path class="st6" d="M264.5,736.3h451.8V284.6c0-60.9-12-120.1-35.5-175.9C664.1,69.3,642.2,32.9,615.4,0H0v206.8
			C12.8,163,36.5,122.9,69.6,89.7C121.7,37.7,190.9,9,264.5,9s142.8,28.7,194.9,80.7c52,52,80.7,121.3,80.7,194.9v275.6H264.5
			c-73.6,0-142.8-28.7-194.9-80.7C36.5,446.3,12.8,406.1,0,362.3v288.6c27.5,19.9,57.1,36.6,88.6,49.9
			C144.4,724.4,203.6,736.3,264.5,736.3z"/>
		<path class="st6" d="M440.4,1786.7c-55.8-23.6-114.9-35.5-175.9-35.5c-60.9,0-120.1,12-175.9,35.5c-31.5,13.3-61.1,30-88.6,49.9
			v83.4h616.7c-10.2-12.7-21.1-24.9-32.8-36.5C542.5,1842,494.2,1809.4,440.4,1786.7z"/>
	</g>
</g>
</svg>
