<svg xmlns="http://www.w3.org/2000/svg" viewBox="0 0 212.06 55.5"><defs><style>.a{fill:#f3c921;}.b{fill:#62cbc9;}.c{fill:none;}</style></defs><title>logo-horizontal</title><path class="a" d="M100.14,26.69h8.5L108,29.82H99.47Z"/><path class="b" d="M131.26,29.43c0-4.82,2.86-8.78,7.41-8.78s7.52,3.8,7.52,8.39a10.54,10.54,0,0,1-.07,1.49H134.36v.27c.23,2.55,1.88,4.67,4.27,4.67a4.28,4.28,0,0,0,4.19-3l3.06.86a7.51,7.51,0,0,1-7.21,5C134.12,38.29,131.26,34.33,131.26,29.43Zm11.68-1.69a4.15,4.15,0,0,0-4.31-4.27,4.27,4.27,0,0,0-4.16,4.27Z"/><path class="b" d="M149.07,33.9l3-.94a3.67,3.67,0,0,0,3.37,2.47c2.16,0,3.06-1.38,2.9-2.43-.5-3.14-9-2.08-9-7.33,0-3,2.66-5,6-5A6.65,6.65,0,0,1,161.73,25l-3,.94a3.38,3.38,0,0,0-3.26-2.43c-2.19,0-2.86,1.53-2.78,2.31.35,2.94,8.94,1.69,8.94,7.45,0,2.71-2.55,5.06-6.23,5.06A6.41,6.41,0,0,1,149.07,33.9Z"/><path class="b" d="M165,16.93a2.12,2.12,0,0,1,4.23,0,2.12,2.12,0,1,1-4.23,0Zm.47,4.27,3.33-.2V38.09h-3.33Z"/><path class="b" d="M188.79,24.25l-3.06-.19a9.14,9.14,0,0,1,1.73,5.25,8.83,8.83,0,0,1-1.65,5.14,6.61,6.61,0,0,1,1.61,4.35,7.33,7.33,0,0,1-7.68,7.41,7.77,7.77,0,0,1-7.1-4.43l2.59-1.3a5.43,5.43,0,0,0,4.51,2.67,4.21,4.21,0,0,0,4.39-4.35,4,4,0,0,0-.63-2.32,7,7,0,0,1-3.61,1c-4.43,0-7.72-3.8-7.72-8.38s3.29-8.43,7.72-8.43H180a1.14,1.14,0,0,1,.39,0l8.55.43Zm-4.39,4.83c0-3.1-1.88-5.53-4.51-5.53s-4.5,2.43-4.5,5.53,1.84,5.44,4.47,5.44S184.4,32.09,184.4,29.08Z"/><path class="b" d="M205.81,26.72V38.09h-3.33V27.63c0-2.63-1.53-4.36-3.92-3.92a5.77,5.77,0,0,0-3.41,2.66V38.09h-3.33V20.84l3.21-.15.12,2.82a6.81,6.81,0,0,1,4.47-2.86C203.23,20.26,205.81,23,205.81,26.72Z"/><path class="c" d="M124.62,25.69H120a4.65,4.65,0,1,0,4.65,4.65V25.69Z"/><path class="b" d="M124.62,14.77v7.57H120a8,8,0,1,0,8,8V14.93Zm0,15.57A4.65,4.65,0,1,1,120,25.69h4.65Z"/><path class="a" d="M80.13,29.43c0-4.82,2.86-8.78,7.41-8.78s7.53,3.8,7.53,8.39A10,10,0,0,1,95,30.53H83.23v.27c.23,2.55,1.88,4.67,4.27,4.67a4.28,4.28,0,0,0,4.19-3l3.06.86a7.51,7.51,0,0,1-7.21,5C83,38.29,80.13,34.33,80.13,29.43Zm11.68-1.69a4.15,4.15,0,0,0-4.31-4.27,4.25,4.25,0,0,0-4.15,4.27Z"/><path class="c" d="M74.56,22.61a4.68,4.68,0,0,0-9.36,0v4.68h4.68A4.69,4.69,0,0,0,74.56,22.61Z"/><path class="a" d="M77.92,22.61a8,8,0,0,0-16.08,0V38.29h3.59V30.65H67.9l4.78,7.64h3.79l-4.9-7.82A8.05,8.05,0,0,0,77.92,22.61ZM65.2,27.29V22.61a4.68,4.68,0,1,1,4.68,4.68Z"/><path class="b" d="M50,17.65a14.77,14.77,0,0,0-29.54,0V32.42h9.73v-4.3H24.75V17.65A10.47,10.47,0,1,1,37.06,28v4.36A14.8,14.8,0,0,0,50,17.65Z"/><path class="a" d="M26,17.08v4.3h5.45V31.85a10.46,10.46,0,0,1-17.86,7.39,10.35,10.35,0,0,1-3.06-7.39,10.48,10.48,0,0,1,8.58-10.3V17.2A14.77,14.77,0,1,0,35.79,31.85V17.08Z"/></svg>