<svg xmlns="http://www.w3.org/2000/svg" viewBox="0 0 350 350"><defs><style>.a{fill:none;}.b{fill:#fdd000;}.c{fill:#55cec8;}</style></defs><title>logo-vertical</title><path class="a" d="M156.9,291.48h-9.14a9.14,9.14,0,1,0,9.14,9.13v-9.13Z"/><path class="a" d="M256.7,298.14c0,5.93,3.62,10.71,8.78,10.71s8.94-4.78,8.94-10.71c0-6.09-3.7-10.87-8.86-10.87S256.7,292.05,256.7,298.14Z"/><path class="a" d="M83.94,287.12c-4.54,0-7.93,3.7-8.17,8.4H92.42A8.15,8.15,0,0,0,83.94,287.12Z"/><path class="a" d="M49.3,276.24a9.19,9.19,0,0,0-9.18,9.19v9.19H49.3a9.19,9.19,0,1,0,0-18.38Z"/><path class="a" d="M184.44,287.12c-4.54,0-7.93,3.7-8.16,8.4h16.64A8.15,8.15,0,0,0,184.44,287.12Z"/><polygon class="b" points="107.47 299.6 124.19 299.6 125.5 293.44 108.78 293.44 107.47 299.6"/><path class="c" d="M156.9,284.9h-9.14a15.72,15.72,0,1,0,15.72,15.71V270.33L156.9,270Zm0,15.71a9.14,9.14,0,1,1-9.14-9.13h9.14Z"/><path class="c" d="M184.52,281.57c-8.94,0-14.56,7.78-14.56,17.26,0,9.63,5.62,17.41,14.56,17.41a14.77,14.77,0,0,0,14.18-9.78l-6-1.7a8.43,8.43,0,0,1-8.25,5.94c-4.7,0-7.93-4.17-8.4-9.17V301h23.12a19.77,19.77,0,0,0,.15-2.93C199.31,289,193.53,281.57,184.52,281.57Zm-8.24,13.95c.23-4.7,3.62-8.4,8.16-8.4a8.15,8.15,0,0,1,8.48,8.4Z"/><path class="c" d="M217.59,287.12a6.63,6.63,0,0,1,6.4,4.78l5.85-1.85a13,13,0,0,0-12.4-8.48c-6.63,0-11.87,4-11.87,9.86,0,10.33,16.65,8.25,17.65,14.41.3,2.08-1.47,4.78-5.7,4.78-3.93,0-5.71-2.85-6.63-4.86L205,307.61c.61,3.16,4.93,8.63,12.48,8.63,7.24,0,12.25-4.62,12.25-9.94,0-11.32-16.88-8.86-17.57-14.64C212,290.12,213.28,287.12,217.59,287.12Z"/><path class="c" d="M240.26,270.17a3.92,3.92,0,0,0-4.08,4.08,4.16,4.16,0,1,0,4.08-4.08Z"/><polygon class="c" points="237.1 315.86 243.65 315.86 243.65 282.26 237.1 282.65 237.1 315.86"/><path class="c" d="M265.71,281.57h-.15c-8.71,0-15.18,7.78-15.18,16.57,0,9,6.47,16.48,15.18,16.48a13.75,13.75,0,0,0,7.08-1.92,7.75,7.75,0,0,1,1.24,4.54,8.28,8.28,0,0,1-8.63,8.56,10.65,10.65,0,0,1-8.86-5.24l-5.09,2.54a15.28,15.28,0,0,0,13.95,8.71c8.93,0,15-6.32,15.1-14.57a13.05,13.05,0,0,0-3.16-8.55,17.34,17.34,0,0,0,3.24-10.09A18,18,0,0,0,277,288.27l6,.39.23-6.16-16.8-.85A2.28,2.28,0,0,0,265.71,281.57Zm8.71,16.57c0,5.93-3.7,10.71-8.94,10.71s-8.78-4.78-8.78-10.71c0-6.09,3.62-10.87,8.86-10.87S274.42,292.05,274.42,298.14Z"/><path class="c" d="M304.33,281.57a13.38,13.38,0,0,0-8.78,5.62l-.23-5.54L289,282v33.9h6.55v-23c1.54-2.54,4.23-4.78,6.7-5.24,4.7-.85,7.7,2.54,7.7,7.71v20.57h6.55V293.51C316.5,286.12,311.42,280.8,304.33,281.57Z"/><path class="b" d="M84,281.57c-8.94,0-14.56,7.78-14.56,17.26,0,9.63,5.62,17.41,14.56,17.41a14.77,14.77,0,0,0,14.18-9.78l-6-1.7a8.43,8.43,0,0,1-8.25,5.94c-4.7,0-7.93-4.17-8.4-9.17V301H98.66a21.34,21.34,0,0,0,.15-2.93C98.81,289,93,281.57,84,281.57Zm-8.25,13.95c.24-4.7,3.63-8.4,8.17-8.4a8.15,8.15,0,0,1,8.48,8.4Z"/><path class="b" d="M65.11,285.43a15.81,15.81,0,1,0-31.61,0v30.81h7.06v-15h4.85l9.41,15h7.44l-9.63-15.36A15.83,15.83,0,0,0,65.11,285.43ZM49.3,294.62H40.12v-9.19a9.19,9.19,0,1,1,9.18,9.19Z"/><path class="c" d="M210.79,18.19A74.2,74.2,0,0,0,136.68,92.3v74.1H185.5V144.79H158.29V92.3A52.5,52.5,0,1,1,220.07,144v21.85a74.11,74.11,0,0,0-9.28-147.63Z"/><path class="b" d="M139.57,237.61a74.18,74.18,0,0,0,74.1-74.1V89.41h-49V111h27.38v52.5a52.5,52.5,0,1,1-61.95-51.64V90a74.1,74.1,0,0,0,9.45,147.6Z"/></svg>