<svg xmlns="http://www.w3.org/2000/svg" xmlns:xlink="http://www.w3.org/1999/xlink" viewBox="0 0 1920 1132"><defs><style>.cls-1{fill:none;}.cls-2{isolation:isolate;}.cls-3{fill:#ffce00;}.cls-4{clip-path:url(#clip-path);}.cls-5{mix-blend-mode:multiply;}.cls-6{fill:#dcdddd;}.cls-7,.cls-8{fill:#f4c213;}.cls-8{fill-rule:evenodd;}</style><clipPath id="clip-path"><rect class="cls-1" x="2176.48" y="-1302.55" width="1920" height="3593.47"/></clipPath></defs><title>re-design web_home_BG</title><g class="cls-2"><g id="Layer_1" data-name="Layer 1"><rect class="cls-3" x="0.59" y="-1" width="1918.41" height="1133.68"/><g class="cls-4"><g class="cls-5"><circle class="cls-6" cx="1889.61" cy="786.04" r="8.85"/><circle class="cls-6" cx="1889.61" cy="736" r="8.85"/><circle class="cls-6" cx="1889.61" cy="685.96" r="8.85"/></g></g><circle class="cls-7" cx="85.18" cy="1116" r="8.85"/><circle class="cls-7" cx="39.23" cy="1116" r="8.85"/><circle class="cls-7" cx="225.57" cy="23.23" r="8.85"/><circle class="cls-7" cx="271.52" cy="23.23" r="8.85"/><circle class="cls-7" cx="317.46" cy="23.23" r="8.85"/><circle class="cls-7" cx="363.41" cy="23.23" r="8.85"/><circle class="cls-7" cx="409.36" cy="23.23" r="8.85"/><circle class="cls-7" cx="455.3" cy="23.23" r="8.85"/><circle class="cls-7" cx="501.25" cy="23.23" r="8.85"/><circle class="cls-7" cx="547.2" cy="23.23" r="8.85"/><circle class="cls-7" cx="593.14" cy="23.23" r="8.85"/><path class="cls-8" d="M1775,15.46q0-8.11-.36-16.13H1048.51V15.46c0,200.63,162.64,363.27,363.27,363.27S1775,216.09,1775,15.46Z"/><circle class="cls-7" cx="1509.11" cy="672.04" r="8.85"/><circle class="cls-7" cx="1463.17" cy="672.04" r="8.85"/><circle class="cls-7" cx="1417.22" cy="672.04" r="8.85"/><circle class="cls-7" cx="1371.27" cy="672.04" r="8.85"/><circle class="cls-7" cx="1325.33" cy="672.04" r="8.85"/><circle class="cls-7" cx="1279.38" cy="672.04" r="8.85"/><circle class="cls-7" cx="1233.43" cy="672.04" r="8.85"/><circle class="cls-7" cx="1187.49" cy="672.04" r="8.85"/><circle class="cls-7" cx="1141.54" cy="672.04" r="8.85"/><circle class="cls-7" cx="1509.11" cy="622" r="8.85"/><circle class="cls-7" cx="1463.17" cy="622" r="8.85"/><circle class="cls-7" cx="1417.22" cy="622" r="8.85"/><circle class="cls-7" cx="1371.27" cy="622" r="8.85"/><circle class="cls-7" cx="1325.33" cy="622" r="8.85"/><circle class="cls-7" cx="1279.38" cy="622" r="8.85"/><circle class="cls-7" cx="1233.43" cy="622" r="8.85"/><circle class="cls-7" cx="1187.49" cy="622" r="8.85"/><circle class="cls-7" cx="1141.54" cy="622" r="8.85"/><circle class="cls-7" cx="1509.11" cy="571.96" r="8.85"/><circle class="cls-7" cx="1463.17" cy="571.96" r="8.85"/><circle class="cls-7" cx="1417.22" cy="571.96" r="8.85"/><circle class="cls-7" cx="1371.27" cy="571.96" r="8.85"/><circle class="cls-7" cx="1325.33" cy="571.96" r="8.85"/><circle class="cls-7" cx="1279.38" cy="571.96" r="8.85"/><circle class="cls-7" cx="1233.43" cy="571.96" r="8.85"/><circle class="cls-7" cx="1187.49" cy="571.96" r="8.85"/><circle class="cls-7" cx="1141.54" cy="571.96" r="8.85"/><circle class="cls-7" cx="85.18" cy="1065.96" r="8.85"/><circle class="cls-7" cx="39.23" cy="1065.96" r="8.85"/><path class="cls-8" d="M1831.46,858.36a448.53,448.53,0,0,0-175.68-35.5H1204.51v308.4h176V998.86h275.27a273.47,273.47,0,0,1,194.64,80.62,277.2,277.2,0,0,1,40.75,51.78h27V906.88A449.45,449.45,0,0,0,1831.46,858.36Z"/><path class="cls-8" d="M475.73,259.79c-165.74,0-300.1,134.36-300.1,300.1S310,860,475.73,860h300.1V559.89C775.82,394.15,641.47,259.79,475.73,259.79Z"/></g></g></svg>