<svg id="Layer_1" data-name="Layer 1" xmlns="http://www.w3.org/2000/svg" viewBox="0 0 1920 1132"><defs><style>.cls-1{fill:#393635;}.cls-2{fill:#352f2d;}</style></defs><title>re-design web_home_BG</title><rect class="cls-1" y="-1" width="1919.04" height="1132.02"/><path class="cls-2" d="M1900.49,79.1a447.74,447.74,0,0,0-44-80.1H1587.05a274.2,274.2,0,1,1-375.16,255V-1H1036.51V254A449.77,449.77,0,0,0,1919,376.35V131.72A448,448,0,0,0,1900.49,79.1Z"/><path class="cls-2" d="M841.68,544.18a380.77,380.77,0,1,0-482,585.08H953.21V813.43A379.8,379.8,0,0,0,841.68,544.18Zm-37,501.5H572.44A232.26,232.26,0,1,1,804.7,813.43Z"/><circle class="cls-2" cx="531.15" cy="266.03" r="8.85"/><circle class="cls-2" cx="485.21" cy="266.03" r="8.85"/><circle class="cls-2" cx="439.26" cy="266.03" r="8.85"/><circle class="cls-2" cx="393.31" cy="266.03" r="8.85"/><circle class="cls-2" cx="347.37" cy="266.03" r="8.85"/><circle class="cls-2" cx="301.42" cy="266.03" r="8.85"/><circle class="cls-2" cx="255.47" cy="266.03" r="8.85"/><circle class="cls-2" cx="209.53" cy="266.03" r="8.85"/><circle class="cls-2" cx="163.58" cy="266.03" r="8.85"/><circle class="cls-2" cx="531.15" cy="215.99" r="8.85"/><circle class="cls-2" cx="485.21" cy="215.99" r="8.85"/><circle class="cls-2" cx="439.26" cy="215.99" r="8.85"/><circle class="cls-2" cx="393.31" cy="215.99" r="8.85"/><circle class="cls-2" cx="347.37" cy="215.99" r="8.85"/><circle class="cls-2" cx="301.42" cy="215.99" r="8.85"/><circle class="cls-2" cx="255.47" cy="215.99" r="8.85"/><circle class="cls-2" cx="209.53" cy="215.99" r="8.85"/><circle class="cls-2" cx="163.58" cy="215.99" r="8.85"/><circle class="cls-2" cx="531.15" cy="165.95" r="8.85"/><circle class="cls-2" cx="485.21" cy="165.95" r="8.85"/><circle class="cls-2" cx="439.26" cy="165.95" r="8.85"/><circle class="cls-2" cx="393.31" cy="165.95" r="8.85"/><circle class="cls-2" cx="347.37" cy="165.95" r="8.85"/><circle class="cls-2" cx="301.42" cy="165.95" r="8.85"/><circle class="cls-2" cx="255.47" cy="165.95" r="8.85"/><circle class="cls-2" cx="209.53" cy="165.95" r="8.85"/><circle class="cls-2" cx="163.58" cy="165.95" r="8.85"/><circle class="cls-2" cx="1662.79" cy="932.08" r="8.85"/><circle class="cls-2" cx="1616.85" cy="932.08" r="8.85"/><circle class="cls-2" cx="1570.9" cy="932.08" r="8.85"/><circle class="cls-2" cx="1524.95" cy="932.08" r="8.85"/><circle class="cls-2" cx="1479.01" cy="932.08" r="8.85"/><circle class="cls-2" cx="1433.06" cy="932.08" r="8.85"/><circle class="cls-2" cx="1387.11" cy="932.08" r="8.85"/><circle class="cls-2" cx="1341.17" cy="932.08" r="8.85"/><circle class="cls-2" cx="1295.22" cy="932.08" r="8.85"/><circle class="cls-2" cx="1662.79" cy="882.04" r="8.85"/><circle class="cls-2" cx="1616.85" cy="882.04" r="8.85"/><circle class="cls-2" cx="1570.9" cy="882.04" r="8.85"/><circle class="cls-2" cx="1524.95" cy="882.04" r="8.85"/><circle class="cls-2" cx="1479.01" cy="882.04" r="8.85"/><circle class="cls-2" cx="1433.06" cy="882.04" r="8.85"/><circle class="cls-2" cx="1387.11" cy="882.04" r="8.85"/><circle class="cls-2" cx="1341.17" cy="882.04" r="8.85"/><circle class="cls-2" cx="1295.22" cy="882.04" r="8.85"/><circle class="cls-2" cx="1662.79" cy="832" r="8.85"/><circle class="cls-2" cx="1616.85" cy="832" r="8.85"/><circle class="cls-2" cx="1570.9" cy="832" r="8.85"/><circle class="cls-2" cx="1524.95" cy="832" r="8.85"/><circle class="cls-2" cx="1479.01" cy="832" r="8.85"/><circle class="cls-2" cx="1433.06" cy="832" r="8.85"/><circle class="cls-2" cx="1387.11" cy="832" r="8.85"/><circle class="cls-2" cx="1341.17" cy="832" r="8.85"/><circle class="cls-2" cx="1295.22" cy="832" r="8.85"/></svg>