<svg id="Layer_1" data-name="Layer 1" xmlns="http://www.w3.org/2000/svg" viewBox="0 0 1920 1132"><defs><style>.cls-1{fill:#fff;}.cls-2{fill:none;}.cls-3{fill:#dcdddd;}.cls-4{fill:#f7f8f8;}.cls-5{fill:#efefef;}</style></defs><title>re-design web_home_BG</title><rect class="cls-1" x="0.91" width="1918.05" height="1130.59"/><path class="cls-2" d="M570.05,583.51a232,232,0,0,0,0,464H802v-232a232,232,0,0,0-232-232Z"/><circle class="cls-3" cx="528.82" cy="268.73" r="8.84"/><circle class="cls-3" cx="482.93" cy="268.73" r="8.84"/><circle class="cls-3" cx="437.04" cy="268.73" r="8.84"/><circle class="cls-3" cx="391.16" cy="268.73" r="8.84"/><circle class="cls-3" cx="345.27" cy="268.73" r="8.84"/><circle class="cls-3" cx="299.38" cy="268.73" r="8.84"/><circle class="cls-3" cx="253.5" cy="268.73" r="8.84"/><circle class="cls-3" cx="207.61" cy="268.73" r="8.84"/><circle class="cls-3" cx="161.72" cy="268.73" r="8.84"/><circle class="cls-3" cx="528.82" cy="218.75" r="8.84"/><circle class="cls-3" cx="482.93" cy="218.75" r="8.84"/><circle class="cls-3" cx="437.04" cy="218.75" r="8.84"/><circle class="cls-3" cx="391.16" cy="218.75" r="8.84"/><circle class="cls-3" cx="345.27" cy="218.75" r="8.84"/><circle class="cls-3" cx="299.38" cy="218.75" r="8.84"/><circle class="cls-3" cx="253.5" cy="218.75" r="8.84"/><circle class="cls-3" cx="207.61" cy="218.75" r="8.84"/><circle class="cls-3" cx="161.72" cy="218.75" r="8.84"/><circle class="cls-3" cx="528.82" cy="168.76" r="8.84"/><circle class="cls-3" cx="482.93" cy="168.76" r="8.84"/><circle class="cls-3" cx="437.04" cy="168.76" r="8.84"/><circle class="cls-3" cx="391.16" cy="168.76" r="8.84"/><circle class="cls-3" cx="345.27" cy="168.76" r="8.84"/><circle class="cls-3" cx="299.38" cy="168.76" r="8.84"/><circle class="cls-3" cx="253.5" cy="168.76" r="8.84"/><circle class="cls-3" cx="207.61" cy="168.76" r="8.84"/><circle class="cls-3" cx="161.72" cy="168.76" r="8.84"/><circle class="cls-3" cx="1659" cy="934.04" r="8.84"/><circle class="cls-3" cx="1613.11" cy="934.04" r="8.84"/><circle class="cls-3" cx="1567.22" cy="934.04" r="8.84"/><circle class="cls-3" cx="1521.34" cy="934.04" r="8.84"/><circle class="cls-3" cx="1475.45" cy="934.04" r="8.84"/><circle class="cls-3" cx="1429.56" cy="934.04" r="8.84"/><circle class="cls-3" cx="1383.68" cy="934.04" r="8.84"/><circle class="cls-3" cx="1337.79" cy="934.04" r="8.84"/><circle class="cls-3" cx="1291.9" cy="934.04" r="8.84"/><circle class="cls-3" cx="1659" cy="884.05" r="8.84"/><circle class="cls-3" cx="1613.11" cy="884.05" r="8.84"/><circle class="cls-3" cx="1567.22" cy="884.05" r="8.84"/><circle class="cls-3" cx="1521.34" cy="884.05" r="8.84"/><circle class="cls-3" cx="1475.45" cy="884.05" r="8.84"/><circle class="cls-3" cx="1429.56" cy="884.05" r="8.84"/><circle class="cls-3" cx="1383.68" cy="884.05" r="8.84"/><circle class="cls-3" cx="1337.79" cy="884.05" r="8.84"/><circle class="cls-3" cx="1291.9" cy="884.05" r="8.84"/><circle class="cls-3" cx="1659" cy="834.07" r="8.84"/><circle class="cls-3" cx="1613.11" cy="834.07" r="8.84"/><circle class="cls-3" cx="1567.22" cy="834.07" r="8.84"/><circle class="cls-3" cx="1521.34" cy="834.07" r="8.84"/><circle class="cls-3" cx="1475.45" cy="834.07" r="8.84"/><circle class="cls-3" cx="1429.56" cy="834.07" r="8.84"/><circle class="cls-3" cx="1383.68" cy="834.07" r="8.84"/><circle class="cls-3" cx="1337.79" cy="834.07" r="8.84"/><circle class="cls-3" cx="1291.9" cy="834.07" r="8.84"/><path class="cls-4" d="M1069,430.32a450.84,450.84,0,0,0,849-52.79V132.14A451.32,451.32,0,0,0,1855.36-1H1585.3a275.11,275.11,0,0,1,93.3,450.26A274.91,274.91,0,0,1,1209.3,254.84V-1H1033.53V254.84A448.09,448.09,0,0,0,1069,430.32Z"/><path class="cls-5" d="M950.33,815.51A380.11,380.11,0,1,0,357.55,1131H950.33ZM802,1047.52h-232a232,232,0,1,1,232-232Z"/></svg>