<svg id="Layer_1" data-name="Layer 1" xmlns="http://www.w3.org/2000/svg" xmlns:xlink="http://www.w3.org/1999/xlink" viewBox="0 0 1920 1132"><defs><style>.cls-1,.cls-5{fill:none;}.cls-2{fill:#efefef;}.cls-3{clip-path:url(#clip-path);}.cls-4{fill:#fff;}.cls-5{stroke:#fff;stroke-miterlimit:10;stroke-width:176px;opacity:0.98;}.cls-6{fill:#dcdddd;}</style><clipPath id="clip-path"><rect class="cls-1" x="2176.48" y="-70.55" width="1920" height="3593.47"/></clipPath></defs><title>re-design web_home_BG</title><rect class="cls-2" width="1919.33" height="1131.29"/><g class="cls-3"><path class="cls-4" d="M1862.38,826.78c0-53,31.48-96.59,81.5-96.59,50.45,0,82.79,41.83,82.79,92.28a112.45,112.45,0,0,1-.86,16.39H1896.44v3c2.59,28,20.71,51.32,47,51.32,22.43,0,39.67-13.37,46.14-33.2l33.64,9.48c-11.22,31.48-41,54.77-79.34,54.77C1893.86,924.23,1862.38,880.68,1862.38,826.78Zm128.5-18.55c0-29.75-22.42-47-47.43-47-25.44,0-44.42,20.7-45.71,47Z"/><path class="cls-4" d="M1700.63,840.27v84h-39.51v-84"/><path class="cls-4" d="M1749.6,840.27h-88.47V751.79a88.47,88.47,0,1,1,88.47,88.47Zm-51.43-37h51.43a51.44,51.44,0,1,0-51.43-51.43Z"/><polyline class="cls-4" points="1764.22 831.93 1822.13 924.23 1780.46 924.23 1722.56 831.93 1764.22 831.93"/><path class="cls-5" d="M1883.63,175.06c0,200.63,162.64,363.27,363.27,363.27h363.27V175.06c0-200.63-162.64-363.27-363.27-363.27S1883.63-25.57,1883.63,175.06Z"/></g><circle class="cls-4" cx="756.33" cy="285.4" r="8.85"/><circle class="cls-4" cx="802.28" cy="285.4" r="8.85"/><circle class="cls-4" cx="848.22" cy="285.4" r="8.85"/><circle class="cls-4" cx="894.17" cy="285.4" r="8.85"/><circle class="cls-4" cx="940.12" cy="285.4" r="8.85"/><circle class="cls-4" cx="986.06" cy="285.4" r="8.85"/><circle class="cls-4" cx="1032.01" cy="285.4" r="8.85"/><circle class="cls-4" cx="1077.95" cy="285.4" r="8.85"/><circle class="cls-4" cx="1123.9" cy="285.4" r="8.85"/><circle class="cls-4" cx="756.33" cy="335.44" r="8.85"/><circle class="cls-4" cx="802.28" cy="335.44" r="8.85"/><circle class="cls-4" cx="848.22" cy="335.44" r="8.85"/><circle class="cls-4" cx="894.17" cy="335.44" r="8.85"/><circle class="cls-4" cx="940.12" cy="335.44" r="8.85"/><circle class="cls-4" cx="986.06" cy="335.44" r="8.85"/><circle class="cls-4" cx="1032.01" cy="335.44" r="8.85"/><circle class="cls-4" cx="1077.95" cy="335.44" r="8.85"/><circle class="cls-4" cx="1123.9" cy="335.44" r="8.85"/><circle class="cls-4" cx="756.33" cy="385.48" r="8.85"/><circle class="cls-4" cx="802.28" cy="385.48" r="8.85"/><circle class="cls-4" cx="848.22" cy="385.48" r="8.85"/><circle class="cls-4" cx="894.17" cy="385.48" r="8.85"/><circle class="cls-4" cx="940.12" cy="385.48" r="8.85"/><circle class="cls-4" cx="986.06" cy="385.48" r="8.85"/><circle class="cls-4" cx="1032.01" cy="385.48" r="8.85"/><circle class="cls-4" cx="1077.95" cy="385.48" r="8.85"/><circle class="cls-4" cx="1123.9" cy="385.48" r="8.85"/><circle class="cls-6" cx="222.18" cy="846.15" r="8.85"/><circle class="cls-6" cx="268.13" cy="846.15" r="8.85"/><circle class="cls-6" cx="314.08" cy="846.15" r="8.85"/><circle class="cls-6" cx="360.02" cy="846.15" r="8.85"/><circle class="cls-6" cx="405.97" cy="846.15" r="8.85"/><circle class="cls-6" cx="451.92" cy="846.15" r="8.85"/><circle class="cls-6" cx="497.86" cy="846.15" r="8.85"/><circle class="cls-6" cx="543.81" cy="846.15" r="8.85"/><circle class="cls-6" cx="589.76" cy="846.15" r="8.85"/><circle class="cls-6" cx="222.18" cy="896.19" r="8.85"/><circle class="cls-6" cx="268.13" cy="896.19" r="8.85"/><circle class="cls-6" cx="314.08" cy="896.19" r="8.85"/><circle class="cls-6" cx="360.02" cy="896.19" r="8.85"/><circle class="cls-6" cx="405.97" cy="896.19" r="8.85"/><circle class="cls-6" cx="451.92" cy="896.19" r="8.85"/><circle class="cls-6" cx="497.86" cy="896.19" r="8.85"/><circle class="cls-6" cx="543.81" cy="896.19" r="8.85"/><circle class="cls-6" cx="589.76" cy="896.19" r="8.85"/><circle class="cls-6" cx="222.18" cy="946.23" r="8.85"/><circle class="cls-6" cx="268.13" cy="946.23" r="8.85"/><circle class="cls-6" cx="314.08" cy="946.23" r="8.85"/><circle class="cls-6" cx="360.02" cy="946.23" r="8.85"/><circle class="cls-6" cx="405.97" cy="946.23" r="8.85"/><circle class="cls-6" cx="451.92" cy="946.23" r="8.85"/><circle class="cls-6" cx="497.86" cy="946.23" r="8.85"/><circle class="cls-6" cx="543.81" cy="946.23" r="8.85"/><circle class="cls-6" cx="589.76" cy="946.23" r="8.85"/><circle class="cls-4" cx="1802.05" cy="955.2" r="8.85"/><circle class="cls-4" cx="1848" cy="955.2" r="8.85"/><circle class="cls-4" cx="1893.94" cy="955.2" r="8.85"/><path class="cls-4" d="M1765,1005.24c0-.08,0-.15,0-.23q-.38,1.93-.77,3.86A8.8,8.8,0,0,0,1765,1005.24Z"/><circle class="cls-4" cx="1802.05" cy="1005.24" r="8.85"/><circle class="cls-4" cx="1848" cy="1005.24" r="8.85"/><circle class="cls-4" cx="1893.94" cy="1005.24" r="8.85"/><path class="cls-4" d="M1756.1,1064.13a8.85,8.85,0,1,0-1.88-17.49q-2.32,7.21-4.94,14.28A8.83,8.83,0,0,0,1756.1,1064.13Z"/><circle class="cls-4" cx="1802.05" cy="1055.28" r="8.85"/><circle class="cls-4" cx="1848" cy="1055.28" r="8.85"/><circle class="cls-4" cx="1893.94" cy="1055.28" r="8.85"/><path class="cls-4" d="M522.78,697.33V246.06a448.53,448.53,0,0,0-35.5-175.68A450.35,450.35,0,0,0,450.18.45H196.09a275.9,275.9,0,0,1,70.06,51,273.47,273.47,0,0,1,80.62,194.64V521.33H71.51a276.84,276.84,0,0,1-70.42-9.06V691.88a454.75,454.75,0,0,0,70.42,5.45Z"/><path class="cls-6" d="M1754.22,1046.64a360.59,360.59,0,0,0,9.95-37.77q.4-1.92.77-3.86a365.1,365.1,0,0,0,6.72-69.88c0-200.63-162.64-363.27-363.27-363.27H1045.12V935.13a361.56,361.56,0,0,0,58.1,197.14h610.34a361.94,361.94,0,0,0,35.73-71.35Q1751.9,1053.85,1754.22,1046.64Z"/><path class="cls-6" d="M1552.75,87.3A275,275,0,0,1,1494,.45H1309.08a448.94,448.94,0,0,0,22.54,67.88,449.65,449.65,0,0,0,96.67,143.41,449.66,449.66,0,0,0,143.41,96.67,448.52,448.52,0,0,0,175.68,35.5,448.53,448.53,0,0,0,171.35-33.7V108.11a273.17,273.17,0,0,1-171.35,59.81A273.47,273.47,0,0,1,1552.75,87.3Z"/></svg>